<svg xmlns="http://www.w3.org/2000/svg" viewBox="0 0 60 80" enable-background="new 0 0 60 80"><style type="text/css">.st0{fill:#231F20;} .st1{fill:#2B2829;} .st2{fill:#414042;}</style><path d="M56 80H4c-2.2 0-4-1.8-4-4V4c0-2.2 1.8-4 4-4h52c2.2 0 4 1.8 4 4v72c0 2.2-1.8 4-4 4z"/><path class="st0" d="M58 39H2V6c0-2.2 1.8-4 4-4h48c2.2 0 4 1.8 4 4v33z"/><path class="st1" d="M2 41h56v33c0 2.2-1.8 4-4 4H6c-2.2 0-4-1.8-4-4V41z"/><path class="st2" d="M2 40.5h56v1H2zM58 6.5c-.3 0-.5-.2-.5-.5 0-1.9-1.6-3.5-3.5-3.5H6C4.1 2.5 2.5 4.1 2.5 6c0 .3-.2.5-.5.5s-.5-.2-.5-.5c0-2.5 2-4.5 4.5-4.5h48c2.5 0 4.5 2 4.5 4.5 0 .3-.2.5-.5.5z"/></svg>